<?xml version="1.0" encoding="UTF-8" standalone="no"?>
<!-- Created with Inkscape (http://www.inkscape.org/) -->

<svg
   width="210mm"
   height="297mm"
   viewBox="0 0 210 297"
   version="1.1"
   id="svg1"
   xml:space="preserve"
   inkscape:version="1.3.2 (091e20e, 2023-11-25, custom)"
   sodipodi:docname="vectors.svg"
   xmlns:inkscape="http://www.inkscape.org/namespaces/inkscape"
   xmlns:sodipodi="http://sodipodi.sourceforge.net/DTD/sodipodi-0.dtd"
   xmlns="http://www.w3.org/2000/svg"
   xmlns:svg="http://www.w3.org/2000/svg"><sodipodi:namedview
     id="namedview1"
     pagecolor="#ffffff"
     bordercolor="#000000"
     borderopacity="0.25"
     inkscape:showpageshadow="2"
     inkscape:pageopacity="0.0"
     inkscape:pagecheckerboard="0"
     inkscape:deskcolor="#d1d1d1"
     inkscape:document-units="mm"
     inkscape:zoom="3.2302717"
     inkscape:cx="77.702443"
     inkscape:cy="39.470364"
     inkscape:window-width="1600"
     inkscape:window-height="837"
     inkscape:window-x="-8"
     inkscape:window-y="-8"
     inkscape:window-maximized="1"
     inkscape:current-layer="layer1"
     showgrid="false" /><defs
     id="defs1" /><g
     inkscape:label="Camada 1"
     inkscape:groupmode="layer"
     id="layer1"><path
       style="fill:#000000;stroke-width:0.299682"
       d="M 4.6236887,6.6327552 C 4.0963502,6.5049962 3.663443,6.0898212 3.5282849,5.5822212 c -0.052646,-0.197718 -0.051665,-0.637894 0.00198,-0.892962 0.109214,-0.519185 0.3487202,-0.968896 0.7912175,-1.485636 0.1883894,-0.219998 0.5671156,-0.544911 0.6351615,-0.544911 0.074005,0 0.6532949,0.561904 0.8424845,0.817199 0.405755,0.547531 0.623193,1.142049 0.622326,1.701561 -6.59e-4,0.416912 -0.137579,0.756532 -0.421856,1.046277 -0.3660737,0.373117 -0.8860551,0.527687 -1.3759196,0.409006 z m 0.9883095,-1.510944 c 0.2458461,-0.115561 0.3990101,-0.354232 0.3990101,-0.621767 0,-0.143684 -0.0697,-0.318533 -0.242732,-0.608918 -0.1880087,-0.315519 -0.7265608,-0.909639 -0.8245613,-0.909639 -0.055065,0 -0.5456228,0.514603 -0.6993043,0.73358 -0.073622,0.104902 -0.1817882,0.286477 -0.2403697,0.403501 -0.1069569,0.213658 -0.2725189,0.730604 -0.2433368,0.759786 0.00859,0.0086 0.053395,-0.01233 0.099579,-0.04647 0.20141,-0.148909 0.4302681,-0.115558 0.7192521,0.104815 0.3049139,0.23252 0.4339085,0.279332 0.7173685,0.260334 0.1000159,-0.0067 0.2408656,-0.04033 0.3150944,-0.07522 z"
       id="path2"
       inkscape:export-filename="svgs\drop.svg"
       inkscape:export-xdpi="96"
       inkscape:export-ydpi="96" /><path
       style="fill:#000000;stroke-width:0.224515"
       d="m 13.417686,6.6634092 c -0.05445,-0.02021 -0.03853,-0.0018 -0.238009,-0.275088 -0.196089,-0.268626 -0.234346,-0.316217 -0.329986,-0.410496 -0.26129,-0.257576 -0.580494,-0.417703 -0.953871,-0.478506 -0.06814,-0.01109 -0.137748,-0.01467 -0.292604,-0.01501 l -0.203196,-4.5e-4 -0.0024,0.170686 c -0.0019,0.138964 -0.0054,0.182708 -0.01878,0.235381 -0.04442,0.17486 -0.154616,0.309411 -0.320232,0.39099 -0.100017,0.04927 -0.159573,0.06333 -0.26822,0.06333 -0.19864,0 -0.254729,-0.02992 -0.633974,-0.338149 -0.1609317,-0.130797 -0.3511237,-0.285165 -0.4226487,-0.343039 -0.07153,-0.05787 -0.166132,-0.13467 -0.210238,-0.170658 -0.107546,-0.08775 -0.304752,-0.247538 -0.374969,-0.303814 -0.123338,-0.09885 -0.174962,-0.157171 -0.222508,-0.25136 -0.0432,-0.08558 -0.06094,-0.164243 -0.06094,-0.270216 0,-0.112583 0.01922,-0.190832 0.07062,-0.287495 0.05763,-0.10839 0.07363,-0.123293 0.524872,-0.488938 0.06084,-0.0493 0.166834,-0.135247 0.235553,-0.191005 0.06872,-0.05576 0.185954,-0.150753 0.260523,-0.211102 0.3625557,-0.293423 0.4357537,-0.353006 0.4395117,-0.357765 0.01,-0.01264 0.110509,-0.07607 0.144126,-0.09094 0.223409,-0.09882 0.484046,-0.05627 0.664295,0.108473 0.06255,0.05717 0.137635,0.173305 0.164582,0.254569 0.02014,0.06073 0.02186,0.07712 0.02432,0.231965 0.0015,0.09164 0.0035,0.208683 0.0046,0.260092 l 0.0019,0.09347 0.109726,0.01376 c 0.06035,0.0076 0.219452,0.02704 0.353562,0.04328 0.403881,0.0489 0.549357,0.08767 0.790666,0.210719 0.469876,0.239603 0.813864,0.669209 0.940779,1.174938 0.05149,0.205186 0.05451,0.240219 0.05858,0.680368 0.004,0.435918 0.003,0.448659 -0.04229,0.500073 -0.04485,0.05095 -0.13255,0.07452 -0.193357,0.05194 z"
       id="path3"
       inkscape:export-filename="svgs\return.svg"
       inkscape:export-xdpi="96"
       inkscape:export-ydpi="96" /><path
       style="fill:#000000;stroke-width:0.299682"
       d="m 16.271881,6.8170872 c -0.151055,-0.06351 -0.153745,-0.12651 -0.03457,-0.809247 0.05892,-0.337539 0.107713,-0.64491 0.108426,-0.683048 9.89e-4,-0.05257 -0.119158,-0.190472 -0.49665,-0.570083 -0.430466,-0.432883 -0.497947,-0.512712 -0.497947,-0.589065 0,-0.04858 0.02341,-0.117238 0.05203,-0.15258 0.04646,-0.05737 0.12324,-0.07449 0.716251,-0.159674 0.491734,-0.07064 0.678827,-0.108339 0.720477,-0.145185 0.03094,-0.02737 0.182161,-0.305858 0.336042,-0.618853 0.280766,-0.571082 0.348276,-0.668671 0.462572,-0.668671 0.125025,0 0.194058,0.09639 0.475728,0.664275 0.156445,0.315412 0.306423,0.595766 0.333285,0.623007 0.03699,0.03751 0.20061,0.07072 0.674304,0.136851 0.344005,0.04803 0.653597,0.09878 0.687981,0.112785 0.09576,0.03901 0.160618,0.156146 0.137485,0.248315 -0.01259,0.05017 -0.195423,0.248581 -0.50782,0.551084 -0.472555,0.457589 -0.488043,0.476216 -0.485055,0.583362 0.0017,0.06087 0.05088,0.382985 0.10929,0.7158 0.100595,0.573159 0.103715,0.608919 0.05907,0.677055 -0.05466,0.08342 -0.164005,0.132726 -0.235976,0.106408 -0.02752,-0.01006 -0.300621,-0.150553 -0.606886,-0.312196 -0.308558,-0.162854 -0.591103,-0.293898 -0.633678,-0.293898 -0.04238,0 -0.307712,0.122478 -0.591713,0.273136 -0.675871,0.358541 -0.671931,0.356978 -0.782654,0.310422 z"
       id="path4"
       inkscape:export-filename="svgs\favorite.svg"
       inkscape:export-xdpi="96"
       inkscape:export-ydpi="96" /><path
       style="fill:#000000;stroke-width:0.299682"
       d="m 21.749533,6.8745962 c -0.07286,-0.0491 -0.172645,-0.148886 -0.221745,-0.221746 l -0.08927,-0.132472 v -1.833688 -1.833688 l 0.08834,-0.129796 c 0.04859,-0.07139 0.138212,-0.166757 0.199166,-0.21193 0.109455,-0.08112 0.143242,-0.08228 2.728689,-0.09395 1.706284,-0.0077 2.6661,0.0022 2.756391,0.02842 0.07619,0.02213 0.199867,0.103499 0.274833,0.180828 l 0.136301,0.1406 0.01058,1.872594 c 0.01193,2.11294 0.019,2.058256 -0.289487,2.235118 l -0.152961,0.08769 -2.654173,6.59e-4 -2.654173,6.59e-4 z m 1.180926,-0.89227 v -0.667448 h -0.120365 c -0.0662,0 -0.15454,-0.01829 -0.19631,-0.04064 -0.07261,-0.03886 -0.07594,-0.09482 -0.07594,-1.276005 v -1.235362 h -0.311243 c -0.507124,0 -0.473991,-0.134241 -0.473991,1.920382 0,1.51026 0.0075,1.724168 0.06309,1.803563 0.09461,0.135072 0.189731,0.157752 0.673063,0.160475 l 0.441694,0.0025 z m 1.52234,-0.0098 0.01076,-0.657634 h -0.135558 c -0.261323,0 -0.258955,0.01223 -0.258955,-1.337702 v -1.214308 h -0.294465 -0.294462 v 1.235362 c 0,1.206124 -0.0018,1.236384 -0.08067,1.278534 -0.04436,0.02374 -0.128288,0.03762 -0.186492,0.03083 l -0.105827,-0.01234 -0.01085,0.626611 c -0.006,0.344636 -0.0018,0.649834 0.009,0.678218 0.01549,0.0404 0.162772,0.04927 0.678301,0.04084 l 0.6585,-0.01077 z m 1.540072,0.0098 V 5.3148782 H 25.85826 c -0.260244,0 -0.258006,0.01161 -0.258006,-1.337703 v -1.214308 h -0.294461 -0.294465 v 1.235362 c 0,1.181184 -0.0033,1.237145 -0.07594,1.276005 -0.04177,0.02235 -0.130107,0.04064 -0.19631,0.04064 h -0.120366 v 0.641274 c 0,0.352701 0.01178,0.653053 0.02616,0.667449 0.01439,0.0144 0.323582,0.02617 0.687081,0.02617 h 0.660904 z m 1.12732,0.626234 c 0.06503,-0.02267 0.138336,-0.08534 0.162904,-0.139264 0.03119,-0.06846 0.04467,-0.611232 0.04467,-1.798789 0,-2.039995 0.03289,-1.90764 -0.473989,-1.90764 h -0.311244 v 1.235362 c 0,1.181184 -0.0033,1.237145 -0.07594,1.276005 -0.04177,0.02235 -0.130107,0.04064 -0.196306,0.04064 h -0.120368 v 0.641274 c 0,0.352701 0.01178,0.653053 0.02616,0.667449 0.04228,0.04228 0.814968,0.02997 0.944098,-0.01504 z"
       id="path5"
       inkscape:export-filename="svgs\piano.svg"
       inkscape:export-xdpi="96"
       inkscape:export-ydpi="96" /><path
       style="fill:#000000;stroke-width:0.129141"
       d="m 28.827297,7.5332402 c 0.0067,-0.0086 0.258443,-0.370686 0.559482,-0.804569 0.301037,-0.433884 0.646076,-0.930878 0.766751,-1.104431 0.120677,-0.173553 0.281957,-0.40559 0.358401,-0.515637 l 0.138989,-0.200084 -0.328699,-0.328832 -0.3287,-0.328831 0.08545,-0.05952 c 0.32211,-0.224357 0.617618,-0.429581 1.723051,-1.196623 0.685235,-0.475475 1.270313,-0.881188 1.300177,-0.901585 l 0.05429,-0.03709 -0.04977,0.07033 c -0.02736,0.03868 -0.178779,0.256391 -0.336462,0.483806 -0.373371,0.538503 -0.747899,1.077905 -1.1362,1.636385 l -0.313117,0.450347 0.328578,0.328709 0.328574,0.328709 -0.069,0.04898 c -0.03795,0.02694 -0.245272,0.171228 -0.460719,0.320641 -1.042993,0.723323 -1.872223,1.298865 -1.980358,1.374502 -0.238748,0.166996 -0.620607,0.431464 -0.636543,0.440857 -0.01305,0.0077 -0.01389,0.0065 -0.0042,-0.0061 z"
       id="path6"
       inkscape:export-filename="svgs\thunder.svg"
       inkscape:export-xdpi="96"
       inkscape:export-ydpi="96" /><path
       style="fill:#000000;stroke-width:0.365966"
       d="m 36.537726,7.5908042 c -0.120727,-0.04332 -0.16128,-0.06056 -0.267206,-0.113608 -0.487516,-0.244152 -0.822636,-0.64569 -0.949506,-1.137686 -0.07915,-0.306968 -0.09099,-0.581425 -0.0405,-0.939043 0.03041,-0.215393 0.06917,-0.349815 0.199405,-0.691569 0.103022,-0.270345 0.110607,-0.300122 0.111374,-0.437315 3e-4,-0.09563 -0.0012,-0.114508 -0.01519,-0.159332 -0.0087,-0.02797 -0.0232,-0.0642 -0.0322,-0.08052 -0.009,-0.01632 -0.01639,-0.03081 -0.01639,-0.03221 0,-0.0059 0.03823,-0.0018 0.07699,0.0082 0.105989,0.02741 0.209343,0.09196 0.313372,0.195708 0.07927,0.07906 0.150248,0.174467 0.204503,0.274905 0.01711,0.0317 0.0325,0.05916 0.03414,0.06102 0.0056,0.0064 0.07047,-0.07112 0.11346,-0.135602 0.192627,-0.288931 0.283382,-0.681461 0.260457,-1.126486 -0.0086,-0.167684 -0.003,-0.262355 0.02445,-0.397131 0.07882,-0.389654 0.305364,-0.705368 0.641517,-0.894039 0.06428,-0.03608 0.204662,-0.09974 0.238874,-0.108324 l 0.01669,-0.0042 -0.01651,0.05314 c -0.04205,0.135393 -0.06495,0.30116 -0.06496,0.470118 -9e-6,0.233424 0.03923,0.414481 0.130044,0.600038 0.07223,0.147584 0.158139,0.25736 0.311864,0.398501 0.200292,0.183896 0.296047,0.302207 0.436163,0.538898 0.190265,0.321401 0.322362,0.72012 0.341341,1.030266 0.004,0.06555 0.0052,0.06975 0.01885,0.06975 0.04913,0 0.147126,-0.08536 0.199336,-0.173631 0.07365,-0.12452 0.125274,-0.308983 0.152548,-0.545059 l 0.009,-0.07797 0.02466,0.05306 c 0.07249,0.15604 0.168008,0.422636 0.220659,0.615864 0.145963,0.535691 0.168077,1.020703 0.06517,1.429518 -0.100496,0.399236 -0.325635,0.724286 -0.667677,0.963986 -0.126915,0.08894 -0.319899,0.188453 -0.481388,0.248229 -0.125807,0.04657 -0.131911,0.04754 -0.07982,0.01266 0.244229,-0.163546 0.3868,-0.371785 0.446356,-0.651954 0.05472,-0.257381 0.02266,-0.596012 -0.0881,-0.930222 -0.02979,-0.08994 -0.07499,-0.206476 -0.09514,-0.245368 -0.0151,-0.02917 -0.01639,-0.02637 -0.02664,0.05776 -0.02236,0.183835 -0.09031,0.331957 -0.172237,0.375419 -0.01714,0.0091 -0.03257,0.0151 -0.03425,0.01334 -0.0018,-0.0018 -0.0066,-0.03217 -0.01079,-0.0676 -0.03111,-0.259405 -0.136766,-0.520075 -0.300159,-0.74044 -0.02286,-0.03083 -0.09672,-0.111009 -0.164129,-0.178178 -0.130314,-0.12984 -0.165302,-0.177093 -0.206985,-0.279517 -0.06796,-0.166996 -0.07747,-0.399524 -0.02379,-0.581174 0.0055,-0.01839 0.0099,-0.03626 0.0099,-0.03972 0,-0.01761 -0.123748,0.03975 -0.208615,0.0967 -0.157719,0.105839 -0.263369,0.25978 -0.317642,0.462832 -0.01798,0.06729 -0.01867,0.07591 -0.01996,0.260802 -5.99e-4,0.105165 -0.0037,0.211952 -0.0061,0.237303 -0.01295,0.123902 -0.04995,0.25677 -0.09944,0.357162 -0.03052,0.06191 -0.07863,0.13623 -0.102949,0.159024 l -0.01687,0.01582 -0.024,-0.04295 c -0.04654,-0.08319 -0.125405,-0.175269 -0.185908,-0.217033 -0.03859,-0.02664 -0.107154,-0.05788 -0.139942,-0.06377 -0.02419,-0.0043 -0.02607,-0.0036 -0.02125,0.0081 0.02766,0.06742 0.03253,0.09033 0.03228,0.151817 -3e-4,0.0784 -0.01016,0.116099 -0.07468,0.285369 -0.09148,0.24007 -0.121497,0.376609 -0.12806,0.582482 -0.0086,0.268894 0.05269,0.498826 0.18553,0.696426 0.0743,0.110528 0.220815,0.246863 0.336282,0.312927 0.02137,0.01222 0.03883,0.02352 0.03883,0.02511 0,0.0038 0.0093,0.0068 -0.09492,-0.03064 z"
       id="path7"
       inkscape:export-filename="svgs\fire.svg"
       inkscape:export-xdpi="96"
       inkscape:export-ydpi="96" /></g></svg>
