<?xml version="1.0" encoding="UTF-8" standalone="no"?>
<!-- Created with Inkscape (http://www.inkscape.org/) -->

<svg
   width="7.9989948mm"
   height="5.4637294mm"
   viewBox="0 0 7.9989948 5.4637294"
   version="1.1"
   id="svg1"
   xml:space="preserve"
   inkscape:version="1.3.2 (091e20e, 2023-11-25, custom)"
   sodipodi:docname="vectors.svg"
   xmlns:inkscape="http://www.inkscape.org/namespaces/inkscape"
   xmlns:sodipodi="http://sodipodi.sourceforge.net/DTD/sodipodi-0.dtd"
   xmlns="http://www.w3.org/2000/svg"
   xmlns:svg="http://www.w3.org/2000/svg"><sodipodi:namedview
     id="namedview1"
     pagecolor="#ffffff"
     bordercolor="#000000"
     borderopacity="0.25"
     inkscape:showpageshadow="2"
     inkscape:pageopacity="0.0"
     inkscape:pagecheckerboard="0"
     inkscape:deskcolor="#d1d1d1"
     inkscape:document-units="mm"
     inkscape:zoom="4.568294"
     inkscape:cx="87.122238"
     inkscape:cy="80.226885"
     inkscape:window-width="1600"
     inkscape:window-height="837"
     inkscape:window-x="-8"
     inkscape:window-y="-8"
     inkscape:window-maximized="1"
     inkscape:current-layer="layer1"
     showgrid="false" /><defs
     id="defs1" /><g
     inkscape:label="Camada 1"
     inkscape:groupmode="layer"
     id="layer1"
     transform="translate(-42.978368,-17.067758)"><path
       style="fill:#000000;stroke-width:1.72363"
       d="m 48.060068,22.475926 c -0.109554,-0.06679 -0.174227,-0.225647 -0.144113,-0.353974 0.01379,-0.05898 0.315733,-0.383001 0.959388,-1.02967 l 0.939195,-0.943593 h -3.284563 c -3.554304,0 -3.390715,0.0074 -3.506194,-0.157523 -0.06145,-0.08775 -0.06033,-0.293324 0.0021,-0.38246 0.111691,-0.159453 -0.0011,-0.154506 3.519706,-0.154506 h 3.268937 l -0.93991,-0.943593 c -0.726217,-0.729062 -0.94451,-0.965582 -0.960138,-1.040312 -0.02796,-0.133702 0.05702,-0.303537 0.181604,-0.362949 0.211009,-0.100626 0.200446,-0.109072 1.545842,1.237193 0.684602,0.685045 1.264924,1.272715 1.289603,1.305929 0.02468,0.03321 0.0453,0.107451 0.04583,0.164969 8.98e-4,0.09773 -0.08051,0.186656 -1.244583,1.359431 -0.68505,0.69017 -1.281609,1.278337 -1.32569,1.307038 -0.104624,0.06812 -0.229003,0.06598 -0.347019,-0.006 z"
       id="path27" /></g></svg>
