<?xml version="1.0" encoding="UTF-8" standalone="no"?>
<!-- Created with Inkscape (http://www.inkscape.org/) -->

<svg
   width="8.3991785mm"
   height="5.5988679mm"
   viewBox="0 0 8.3991785 5.5988679"
   version="1.1"
   id="svg1"
   xml:space="preserve"
   inkscape:version="1.3.2 (091e20e, 2023-11-25, custom)"
   sodipodi:docname="vectors.svg"
   xmlns:inkscape="http://www.inkscape.org/namespaces/inkscape"
   xmlns:sodipodi="http://sodipodi.sourceforge.net/DTD/sodipodi-0.dtd"
   xmlns="http://www.w3.org/2000/svg"
   xmlns:svg="http://www.w3.org/2000/svg"><sodipodi:namedview
     id="namedview1"
     pagecolor="#ffffff"
     bordercolor="#000000"
     borderopacity="0.25"
     inkscape:showpageshadow="2"
     inkscape:pageopacity="0.0"
     inkscape:pagecheckerboard="0"
     inkscape:deskcolor="#d1d1d1"
     inkscape:document-units="mm"
     inkscape:zoom="4.568294"
     inkscape:cx="64.356628"
     inkscape:cy="36.665766"
     inkscape:window-width="1600"
     inkscape:window-height="837"
     inkscape:window-x="-8"
     inkscape:window-y="-8"
     inkscape:window-maximized="1"
     inkscape:current-layer="layer1"
     showgrid="false" /><defs
     id="defs1" /><g
     inkscape:label="Camada 1"
     inkscape:groupmode="layer"
     id="layer1"
     transform="translate(-17.166058,-8.404494)"><path
       style="fill:#000000"
       d="m 21.521258,11.527155 c 1.93e-4,-1.411449 0.0045,-2.4690329 0.01005,-2.4594989 0.0053,0.0092 0.190756,0.364882 0.412035,0.790406 0.221279,0.4255239 0.423641,0.8013099 0.449695,0.8350809 0.06413,0.08313 0.163404,0.16186 0.270819,0.214789 0.162306,0.07998 0.131727,0.07763 1.011474,0.07763 h 0.78935 v 1.141416 c 0,0.695918 -0.0042,1.163823 -0.01089,1.198825 -0.03402,0.17941 -0.193037,0.348281 -0.368234,0.391065 -0.06605,0.01613 -2.340881,0.27615 -2.467072,0.281994 l -0.09757,0.0045 z m -0.563445,2.461274 c -0.0184,-0.0025 -0.53523,-0.0618 -1.148513,-0.131882 -0.613284,-0.07008 -1.145168,-0.135399 -1.181965,-0.145144 -0.129208,-0.03422 -0.257343,-0.146333 -0.321122,-0.280975 l -0.0357,-0.07536 -0.003,-1.178624 -0.003,-1.178624 0.789152,-0.0038 c 0.713758,-0.0034 0.795543,-0.0057 0.856055,-0.02343 0.167671,-0.04922 0.348443,-0.170125 0.434152,-0.290379 0.02413,-0.03386 0.225594,-0.410871 0.447688,-0.8377989 0.222094,-0.426928 0.405567,-0.777991 0.407719,-0.78014 0.0022,-0.0021 0.0059,1.1071089 0.0083,2.4650189 l 0.0043,2.468926 -0.11027,-0.0017 c -0.06065,-9.19e-4 -0.125324,-0.0037 -0.143722,-0.0061 z M 17.25714,10.661928 c -0.04094,-0.01241 -0.08119,-0.05009 -0.08969,-0.08397 -0.0036,-0.0145 1.3e-5,-0.04562 0.0081,-0.06914 0.0081,-0.02353 0.225169,-0.38367 0.482364,-0.8003209 0.374888,-0.607313 0.480895,-0.77098 0.534531,-0.825273 0.07077,-0.07163 0.15479,-0.125088 0.242943,-0.154555 0.02936,-0.0098 0.614129,-0.08798 1.299486,-0.173693 1.342335,-0.167884 1.307933,-0.165192 1.34711,-0.105401 0.03908,0.05964 0.03062,0.07829 -0.487655,1.075954 -0.552899,1.0643099 -0.52835,1.0249959 -0.687513,1.1009979 l -0.08638,0.04125 -1.265594,0.0019 c -0.696077,0.0011 -1.280049,-0.0024 -1.297716,-0.0078 z m 5.620316,-0.0106 c -0.07959,-0.02543 -0.171092,-0.08471 -0.219199,-0.142011 -0.01974,-0.02351 -0.258614,-0.471657 -0.530834,-0.9958799 -0.445886,-0.858657 -0.494948,-0.958301 -0.494972,-1.005287 -2.1e-5,-0.04263 0.0052,-0.05624 0.02837,-0.0745 0.01562,-0.01229 0.042,-0.02533 0.05861,-0.02898 0.03933,-0.0086 2.511783,0.301586 2.579334,0.323633 0.07332,0.02393 0.173787,0.08673 0.236227,0.147665 0.03842,0.03749 0.186583,0.267047 0.523137,0.810509 0.258248,0.4170149 0.479315,0.7803039 0.49126,0.8073079 0.01869,0.04224 0.01989,0.05521 0.0086,0.09289 -0.0106,0.03538 -0.02208,0.04785 -0.0598,0.06498 -0.045,0.02043 -0.0919,0.02118 -1.301128,0.02084 -1.193433,-3.37e-4 -1.257614,-0.0014 -1.31961,-0.02117 z"
       id="path11" /></g></svg>
