<?xml version="1.0" encoding="UTF-8" standalone="no"?>
<!-- Created with Inkscape (http://www.inkscape.org/) -->

<svg
   width="3.558337mm"
   height="4.144002mm"
   viewBox="0 0 3.558337 4.144002"
   version="1.1"
   id="svg1"
   xml:space="preserve"
   inkscape:version="1.3.2 (091e20e, 2023-11-25, custom)"
   sodipodi:docname="vectors.svg"
   xmlns:inkscape="http://www.inkscape.org/namespaces/inkscape"
   xmlns:sodipodi="http://sodipodi.sourceforge.net/DTD/sodipodi-0.dtd"
   xmlns="http://www.w3.org/2000/svg"
   xmlns:svg="http://www.w3.org/2000/svg"><sodipodi:namedview
     id="namedview1"
     pagecolor="#ffffff"
     bordercolor="#000000"
     borderopacity="0.25"
     inkscape:showpageshadow="2"
     inkscape:pageopacity="0.0"
     inkscape:pagecheckerboard="0"
     inkscape:deskcolor="#d1d1d1"
     inkscape:document-units="mm"
     inkscape:zoom="3.2302717"
     inkscape:cx="77.702443"
     inkscape:cy="39.470364"
     inkscape:window-width="1600"
     inkscape:window-height="837"
     inkscape:window-x="-8"
     inkscape:window-y="-8"
     inkscape:window-maximized="1"
     inkscape:current-layer="layer1"
     showgrid="false" /><defs
     id="defs1" /><g
     inkscape:label="Camada 1"
     inkscape:groupmode="layer"
     id="layer1"
     transform="translate(-3.2972568,-7.3941577)"><path
       id="path10"
       style="fill:none;stroke:#000000;stroke-width:0.2;stroke-dasharray:none;stroke-opacity:1"
       d="m 5.0422647,7.4952491 c -0.191343,0.010288 -0.381463,0.092624 -0.544669,0.248047 -0.185323,0.176489 -0.285254,0.455419 -0.285254,0.797884 v 0.225826 h -0.376205 c -0.252367,0 -0.391233,0.017684 -0.421163,0.053744 -0.031519,0.037987 -0.021386,0.240168 0.034624,0.688847 0.043622,0.349442 0.101641,0.8361609 0.129191,1.0810709 0.056844,0.505395 0.11378,0.647023 0.306958,0.764811 0.125099,0.07628 0.219416,0.08268 1.196309,0.08268 0.988751,0 1.069526,-0.0054 1.200444,-0.08527 0.077209,-0.04707 0.16565,-0.147426 0.19637,-0.222725 0.078598,-0.19267 0.315845,-2.1970259 0.270785,-2.2877159 -0.029445,-0.05926 -0.108343,-0.074849 -0.427881,-0.084749 l -0.391708,-0.011886 -0.011368,-0.254765 c -0.018269,-0.411824 -0.048959,-0.523135 -0.188103,-0.681612 -0.194431,-0.221445 -0.442317,-0.32742 -0.68833,-0.314193 z m 0.043925,0.289388 c 0.365234,0 0.568327,0.255934 0.568441,0.717269 v 0.2651 h -0.572575 -0.572575 v -0.286287 c 2.54e-4,-0.45873 0.197002,-0.696082 0.576709,-0.696082 z" /></g></svg>
