<?xml version="1.0" encoding="UTF-8" standalone="no"?>
<!-- Created with Inkscape (http://www.inkscape.org/) -->

<svg
   width="3.3578246mm"
   height="3.9439504mm"
   viewBox="0 0 3.3578246 3.9439504"
   version="1.1"
   id="svg1"
   xml:space="preserve"
   inkscape:version="1.3.2 (091e20e, 2023-11-25, custom)"
   sodipodi:docname="vectors.svg"
   xmlns:inkscape="http://www.inkscape.org/namespaces/inkscape"
   xmlns:sodipodi="http://sodipodi.sourceforge.net/DTD/sodipodi-0.dtd"
   xmlns="http://www.w3.org/2000/svg"
   xmlns:svg="http://www.w3.org/2000/svg"><sodipodi:namedview
     id="namedview1"
     pagecolor="#ffffff"
     bordercolor="#000000"
     borderopacity="0.25"
     inkscape:showpageshadow="2"
     inkscape:pageopacity="0.0"
     inkscape:pagecheckerboard="0"
     inkscape:deskcolor="#d1d1d1"
     inkscape:document-units="mm"
     inkscape:zoom="3.2302717"
     inkscape:cx="77.702443"
     inkscape:cy="39.470364"
     inkscape:window-width="1600"
     inkscape:window-height="837"
     inkscape:window-x="-8"
     inkscape:window-y="-8"
     inkscape:window-maximized="1"
     inkscape:current-layer="layer1"
     showgrid="false" /><defs
     id="defs1" /><g
     inkscape:label="Camada 1"
     inkscape:groupmode="layer"
     id="layer1"
     transform="translate(-7.664592,-7.5353401)"><path
       style="fill:#000000"
       d="m 8.1532538,11.396495 c -0.193178,-0.117788 -0.250104,-0.259678 -0.306948,-0.765074 -0.02755,-0.24491 -0.08577,-0.7311982 -0.129392,-1.0806412 -0.05601,-0.448679 -0.06619,-0.651154 -0.03467,-0.689141 0.02993,-0.03606 0.168761,-0.05379 0.421129,-0.05379 h 0.376486 v -0.225551 c 0,-0.342466 0.09965,-0.621491 0.284973,-0.79798 0.373044,-0.355253 0.887406,-0.327751 1.233062,0.06593 0.1391442,0.158477 0.1699602,0.27012 0.1882292,0.681945 l 0.01129,0.254452 0.391635,0.01219 c 0.319539,0.0099 0.39828,0.02556 0.427725,0.08482 0.04506,0.09069 -0.192112,2.0948892 -0.27071,2.2875592 -0.03072,0.0753 -0.119017,0.175414 -0.196226,0.222487 -0.130918,0.07982 -0.211846,0.08559 -1.2005982,0.08559 -0.976894,0 -1.070889,-0.0065 -1.195988,-0.08278 z m 0.602266,-2.1645612 c 0,-0.08286 -0.0243,-0.10884 -0.111207,-0.118918 -0.128344,-0.01488 -0.195085,0.09452 -0.115882,0.189953 0.08134,0.09801 0.227089,0.05242 0.227089,-0.07103 z m 1.4134692,0.05301 c 0.05584,-0.10857 0.01462,-0.180237 -0.103664,-0.180237 -0.1105372,0 -0.1684102,0.08613 -0.1282302,0.190839 0.03345,0.08717 0.1851742,0.08023 0.2318942,-0.0106 z M 9.9216928,8.5427908 c -1.14e-4,-0.461336 -0.202911,-0.717414 -0.568145,-0.717414 -0.379708,0 -0.576412,0.23748 -0.576666,0.69621 l -1.58e-4,0.286259 h 0.572518 0.572517 z"
       id="path9" /></g></svg>
