<?xml version="1.0" encoding="UTF-8" standalone="no"?>
<!-- Created with Inkscape (http://www.inkscape.org/) -->

<svg
   width="6.0196948mm"
   height="5.8083363mm"
   viewBox="0 0 6.0196948 5.8083363"
   version="1.1"
   id="svg1"
   xml:space="preserve"
   inkscape:version="1.3.2 (091e20e, 2023-11-25, custom)"
   sodipodi:docname="vectors.svg"
   xmlns:inkscape="http://www.inkscape.org/namespaces/inkscape"
   xmlns:sodipodi="http://sodipodi.sourceforge.net/DTD/sodipodi-0.dtd"
   xmlns="http://www.w3.org/2000/svg"
   xmlns:svg="http://www.w3.org/2000/svg"><sodipodi:namedview
     id="namedview1"
     pagecolor="#ffffff"
     bordercolor="#000000"
     borderopacity="0.25"
     inkscape:showpageshadow="2"
     inkscape:pageopacity="0.0"
     inkscape:pagecheckerboard="0"
     inkscape:deskcolor="#d1d1d1"
     inkscape:document-units="mm"
     inkscape:zoom="4.568294"
     inkscape:cx="87.122238"
     inkscape:cy="80.226885"
     inkscape:window-width="1600"
     inkscape:window-height="837"
     inkscape:window-x="-8"
     inkscape:window-y="-8"
     inkscape:window-maximized="1"
     inkscape:current-layer="layer1"
     showgrid="false" /><defs
     id="defs1" /><g
     inkscape:label="Camada 1"
     inkscape:groupmode="layer"
     id="layer1"
     transform="translate(-34.718167,-16.671175)"><path
       style="fill:#000000"
       d="m 36.70346,22.471722 c -0.155326,-0.02684 -0.328098,-0.112262 -0.443891,-0.219468 -0.09765,-0.09041 -0.151215,-0.161025 -0.20557,-0.271008 -0.0872,-0.17645 -0.08175,-0.09198 -0.08885,-1.375163 l -0.0064,-1.153606 -0.03269,-0.0556 c -0.0212,-0.03606 -0.05222,-0.06709 -0.08829,-0.08828 -0.05299,-0.03115 -0.06394,-0.03287 -0.233282,-0.03684 -0.212683,-0.005 -0.288589,0.0079 -0.351325,0.05961 -0.09437,0.07779 -0.08845,-0.0054 -0.08874,1.245928 l -2.58e-4,1.113036 0.02984,0.05987 c 0.03915,0.07856 0.0987,0.117947 0.199998,0.132293 0.149567,0.02118 0.229254,0.101736 0.229254,0.231754 0,0.118258 -0.102117,0.216361 -0.225213,0.216361 -0.09407,0 -0.190391,-0.02407 -0.292733,-0.07314 -0.187163,-0.08975 -0.324713,-0.264741 -0.370417,-0.471245 -0.01678,-0.0758 -0.01852,-0.215505 -0.01553,-1.244877 l 0.0034,-1.15949 0.0268,-0.07894 c 0.03339,-0.09836 0.127353,-0.240528 0.20036,-0.303157 0.06761,-0.058 0.184336,-0.120508 0.279015,-0.149417 0.05948,-0.01816 0.111497,-0.02152 0.329601,-0.02126 0.287755,3.35e-4 0.350742,0.01072 0.482631,0.07957 0.09257,0.04833 0.236644,0.192566 0.285487,0.285823 0.08213,0.156807 0.07782,0.08801 0.08516,1.358647 0.0046,0.793615 0.01066,1.158919 0.01967,1.18402 0.03815,0.106253 0.129345,0.204018 0.239456,0.256696 l 0.07652,0.03661 h 1.389035 c 1.315998,0 1.39273,-0.0011 1.459309,-0.02168 0.151866,-0.04685 0.250581,-0.125303 0.309929,-0.246303 0.04073,-0.08305 0.02695,-0.0054 0.250286,-1.409451 0.157887,-0.992571 0.155247,-0.960942 0.09116,-1.092161 -0.03529,-0.07225 -0.131496,-0.169014 -0.205164,-0.206344 -0.104067,-0.05274 -0.149578,-0.05522 -1.013052,-0.05522 H 38.21301 v -0.718679 c 0,-0.78884 -0.002,-0.815999 -0.0715,-0.954282 -0.0687,-0.136746 -0.205614,-0.210476 -0.39086,-0.210476 h -0.0909 V 17.6036 c 0,0.390925 -0.0036,0.504841 -0.0179,0.57386 -0.05695,0.273953 -0.164766,0.465418 -0.387076,0.687408 -0.167958,0.167716 -0.271795,0.242117 -0.348149,0.249453 -0.140671,0.01352 -0.246825,-0.08145 -0.246996,-0.220974 -9.7e-5,-0.07918 0.03794,-0.133892 0.164349,-0.236412 0.184252,-0.149431 0.302813,-0.307777 0.360635,-0.481648 0.01953,-0.05872 0.0221,-0.127105 0.02762,-0.735179 l 0.0061,-0.670436 0.105442,-0.03359 c 0.219324,-0.06986 0.490313,-0.08487 0.677362,-0.03751 0.282234,0.07145 0.499763,0.276322 0.593032,0.558525 0.05751,0.173996 0.06602,0.278179 0.0661,0.808352 l 7e-5,0.484625 0.650374,0.005 c 0.704662,0.0055 0.70737,0.0057 0.87055,0.07438 0.255702,0.107624 0.463049,0.346274 0.531982,0.612296 0.04417,0.170453 0.04669,0.146978 -0.14552,1.35253 -0.09807,0.61506 -0.186577,1.150074 -0.19669,1.18892 -0.02698,0.10361 -0.111555,0.272344 -0.176876,0.352859 -0.119545,0.14735 -0.286221,0.249385 -0.505325,0.309345 l -0.116205,0.0318 -1.406692,0.0021 c -0.773681,0.0011 -1.431783,-0.0023 -1.462449,-0.0076 z"
       id="path26" /></g></svg>
