<?xml version="1.0" encoding="UTF-8" standalone="no"?>
<!-- Created with Inkscape (http://www.inkscape.org/) -->

<svg
   width="6.0329809mm"
   height="6.043138mm"
   viewBox="0 0 6.0329809 6.043138"
   version="1.1"
   id="svg1"
   xml:space="preserve"
   inkscape:version="1.3.2 (091e20e, 2023-11-25, custom)"
   sodipodi:docname="vectors.svg"
   xmlns:inkscape="http://www.inkscape.org/namespaces/inkscape"
   xmlns:sodipodi="http://sodipodi.sourceforge.net/DTD/sodipodi-0.dtd"
   xmlns="http://www.w3.org/2000/svg"
   xmlns:svg="http://www.w3.org/2000/svg"><sodipodi:namedview
     id="namedview1"
     pagecolor="#ffffff"
     bordercolor="#000000"
     borderopacity="0.25"
     inkscape:showpageshadow="2"
     inkscape:pageopacity="0.0"
     inkscape:pagecheckerboard="0"
     inkscape:deskcolor="#d1d1d1"
     inkscape:document-units="mm"
     inkscape:zoom="4.568294"
     inkscape:cx="170.30427"
     inkscape:cy="82.853686"
     inkscape:window-width="1600"
     inkscape:window-height="837"
     inkscape:window-x="-8"
     inkscape:window-y="-8"
     inkscape:window-maximized="1"
     inkscape:current-layer="layer1"
     showgrid="false" /><defs
     id="defs1" /><g
     inkscape:label="Camada 1"
     inkscape:groupmode="layer"
     id="layer1"
     transform="translate(-53.066366,-16.557209)"><path
       style="fill:#000000;stroke:#000000;stroke-width:0.303;stroke-dasharray:none"
       d="m 54.873496,22.428481 c -0.437521,-0.05533 -0.745553,-0.156504 -0.989113,-0.324877 -0.108297,-0.07486 -0.280742,-0.249633 -0.350188,-0.354903 -0.149773,-0.227039 -0.24971,-0.52583 -0.2983,-0.891864 -0.02404,-0.181111 -0.02404,-2.387969 0,-2.56908 0.04859,-0.366033 0.148527,-0.664824 0.2983,-0.891863 0.06945,-0.10527 0.241891,-0.280038 0.350188,-0.354904 0.210684,-0.145645 0.497272,-0.249838 0.835626,-0.303801 0.176428,-0.02814 0.192487,-0.02848 1.350302,-0.02848 0.908246,0 1.199934,0.0038 1.297073,0.01678 0.496398,0.06647 0.837293,0.210096 1.088021,0.458396 0.259615,0.257099 0.406694,0.599445 0.474241,1.103866 0.02418,0.180582 0.02431,2.387071 1.46e-4,2.569081 -0.06553,0.493654 -0.214465,0.843655 -0.466048,1.095239 -0.241219,0.241218 -0.546952,0.379313 -1.008635,0.455583 -0.157529,0.02602 -0.20147,0.02699 -1.328403,0.02941 -0.641017,0.0014 -1.204961,-0.0025 -1.25321,-0.0086 z m 2.44784,-0.406821 c 0.768666,-0.08944 1.121432,-0.442204 1.21087,-1.210871 0.02866,-0.246324 0.02866,-2.230659 0,-2.476983 -0.08944,-0.768667 -0.442204,-1.121434 -1.21087,-1.210871 -0.137019,-0.01594 -0.340788,-0.01943 -1.135103,-0.01945 l -0.968104,-1.6e-5 v 2.468824 2.468824 l 0.968104,-1.6e-5 c 0.794315,-1.2e-5 0.998084,-0.0035 1.135103,-0.01945 z m -0.530429,-1.595132 c -0.02068,-0.01342 -0.202132,-0.189963 -0.403232,-0.39232 -0.394867,-0.397334 -0.39466,-0.397052 -0.37423,-0.508906 0.0074,-0.04066 0.05954,-0.09813 0.386757,-0.426471 0.399486,-0.400861 0.419548,-0.416508 0.511684,-0.3991 0.06309,0.01192 0.116684,0.04985 0.140065,0.09912 0.02397,0.05052 0.02739,0.135713 0.0071,0.175859 -0.0076,0.01506 -0.141457,0.155613 -0.29741,0.312352 l -0.283549,0.284979 0.289996,0.291498 c 0.241818,0.24307 0.292597,0.300345 0.305659,0.344758 0.02071,0.07043 0.0018,0.133879 -0.05676,0.190661 -0.03782,0.03666 -0.05426,0.04335 -0.116251,0.04733 -0.0559,0.0036 -0.08069,-9.05e-4 -0.109795,-0.01976 z m -1.973806,-0.854231 c 0,-2.125831 -0.0024,-2.443759 -0.01816,-2.443759 -0.01,0 -0.07676,0.01131 -0.148385,0.02513 -0.295222,0.05697 -0.506932,0.160209 -0.673438,0.32839 -0.16035,0.161963 -0.270251,0.40483 -0.328752,0.726497 -0.02782,0.152989 -0.02808,0.165403 -0.02808,1.363742 0,1.198339 2.56e-4,1.210753 0.02808,1.363742 0.113124,0.622011 0.403586,0.931454 0.990479,1.055201 0.06013,0.01268 0.12484,0.02345 0.143794,0.02394 l 0.03446,9.05e-4 z"
       id="path8"
       inkscape:export-filename="svgs\sidebar.svg"
       inkscape:export-xdpi="96"
       inkscape:export-ydpi="96" /></g></svg>
